<svg xmlns="http://www.w3.org/2000/svg" width="37.617" height="54.894" viewBox="0 0 37.617 54.894">
  <path id="FontAwsome_arrow-down_" data-name="FontAwsome (arrow-down)" d="M39.815,53.869l1.861,1.861a2,2,0,0,1,0,2.842l-16.292,16.3a2,2,0,0,1-2.842,0l-16.3-16.3a2,2,0,0,1,0-2.842L8.1,53.869a2.015,2.015,0,0,1,2.876.034l9.626,10.1.084-40.423A2.008,2.008,0,0,1,22.7,21.571h2.683A2.008,2.008,0,0,1,27.4,23.584l-.084,40.423,9.626-10.1a2,2,0,0,1,2.876-.034Z" transform="translate(-5.15 -21.071)" fill="#c0a16a" stroke="#c0a16a" stroke-width="1"/>
</svg>
