<svg xmlns="http://www.w3.org/2000/svg" width="34.429" height="23.392" viewBox="0 0 34.429 23.392">
  <path id="FontAwsome_arrow-down_" data-name="FontAwsome (arrow-down)" d="M27.475,42.2l1.189,1.189a1.28,1.28,0,0,1,0,1.816L18.257,55.622a1.28,1.28,0,0,1-1.816,0L6.028,45.209a1.28,1.28,0,0,1,0-1.816L7.217,42.2a1.287,1.287,0,0,1,1.837.021L15.2,48.68l.054-25.823a1.282,1.282,0,0,1,1.286-1.286h1.714a1.282,1.282,0,0,1,1.286,1.286L19.489,48.68l6.149-6.455a1.278,1.278,0,0,1,1.837-.021Z" transform="translate(-21.571 29.042) rotate(-90)" fill="#c0a16a"/>
</svg>
