<svg xmlns="http://www.w3.org/2000/svg" width="38.263" height="33.481" viewBox="0 0 38.263 33.481">
  <path id="FontAwsome_bars_" data-name="FontAwsome (bars)" d="M1.367,66.149H36.9a1.367,1.367,0,0,0,1.367-1.367V61.367A1.367,1.367,0,0,0,36.9,60H1.367A1.367,1.367,0,0,0,0,61.367v3.416A1.367,1.367,0,0,0,1.367,66.149Zm0,13.666H36.9a1.367,1.367,0,0,0,1.367-1.367V75.032A1.366,1.366,0,0,0,36.9,73.666H1.367A1.366,1.366,0,0,0,0,75.032v3.416A1.367,1.367,0,0,0,1.367,79.815Zm0,13.666H36.9a1.367,1.367,0,0,0,1.367-1.367V88.7A1.367,1.367,0,0,0,36.9,87.331H1.367A1.367,1.367,0,0,0,0,88.7v3.416A1.367,1.367,0,0,0,1.367,93.481Z" transform="translate(0 -60)" fill="#f2f2f2"/>
</svg>
