<svg xmlns="http://www.w3.org/2000/svg" width="23.392" height="34.429" viewBox="0 0 23.392 34.429">
  <path id="FontAwsome_arrow-down_" data-name="FontAwsome (arrow-down)" d="M27.475,42.2l1.189,1.189a1.28,1.28,0,0,1,0,1.816L18.257,55.622a1.28,1.28,0,0,1-1.816,0L6.028,45.209a1.28,1.28,0,0,1,0-1.816L7.217,42.2a1.287,1.287,0,0,1,1.837.021L15.2,48.68l.024-11.592.03-14.231a1.282,1.282,0,0,1,1.286-1.286h1.714a1.282,1.282,0,0,1,1.286,1.286L19.489,48.68l6.149-6.455a1.278,1.278,0,0,1,1.837-.021Z" transform="translate(-5.65 -21.571)" fill="#b7b7b7"/>
</svg>
